<?xml version="1.0" encoding="iso-8859-1"?>
<!-- Generator: Adobe Illustrator 17.1.0, SVG Export Plug-In . SVG Version: 6.00 Build 0)  -->
<!DOCTYPE svg PUBLIC "-//W3C//DTD SVG 1.1//EN" "http://www.w3.org/Graphics/SVG/1.1/DTD/svg11.dtd">
<svg version="1.1" id="Capa_1" xmlns="http://www.w3.org/2000/svg" xmlns:xlink="http://www.w3.org/1999/xlink" x="0px" y="0px"
	 viewBox="0 0 193.833 193.833" style="enable-background:new 0 0 193.833 193.833;" xml:space="preserve">
<path d="M104.417,185.979V52.687h34.018v133.293H104.417z M55.399,185.979h34.018V52.687H55.399V185.979z M180.583,0H13.25
	c-4.143,0-7.5,3.357-7.5,7.5v178.833c0,4.143,3.357,7.5,7.5,7.5h27.167c-0.006-0.118-0.018-0.234-0.018-0.354V45.187
	c0-4.143,3.357-7.5,7.5-7.5h98.035c4.143,0,7.5,3.357,7.5,7.5v148.293c0,0.119-0.012,0.236-0.018,0.354h27.167
	c4.143,0,7.5-3.357,7.5-7.5V7.5C188.083,3.357,184.726,0,180.583,0z"/>
<g>
</g>
<g>
</g>
<g>
</g>
<g>
</g>
<g>
</g>
<g>
</g>
<g>
</g>
<g>
</g>
<g>
</g>
<g>
</g>
<g>
</g>
<g>
</g>
<g>
</g>
<g>
</g>
<g>
</g>
</svg>
